<svg width="68" height="13" viewBox="0 0 68 13" fill="none" xmlns="http://www.w3.org/2000/svg">
<path d="M12.1719 12H10.1406V9.25H3V12H0.96875V6.39844C0.96875 5.58073 1.10938 4.82812 1.39062 4.14062C1.67188 3.45312 2.0625 2.86198 2.5625 2.36719C3.0625 1.8724 3.65365 1.48698 4.33594 1.21094C5.01823 0.934896 5.76302 0.796875 6.57031 0.796875H11.1484C11.2891 0.796875 11.4219 0.822917 11.5469 0.875C11.6719 0.927083 11.7812 1 11.875 1.09375C11.9688 1.1875 12.0417 1.29688 12.0938 1.42188C12.1458 1.54688 12.1719 1.67969 12.1719 1.82031V12ZM3 7.21875H10.1406V2.82812H6.57031C6.50781 2.82812 6.375 2.83854 6.17188 2.85938C5.97396 2.875 5.74219 2.91927 5.47656 2.99219C5.21615 3.0651 4.9401 3.17708 4.64844 3.32812C4.35677 3.47917 4.08854 3.6875 3.84375 3.95312C3.59896 4.21875 3.39583 4.55208 3.23438 4.95312C3.07812 5.34896 3 5.83073 3 6.39844V7.21875ZM25.7344 4.5625C25.7344 5.02604 25.6771 5.4401 25.5625 5.80469C25.4479 6.16927 25.2917 6.49219 25.0938 6.77344C24.901 7.04948 24.6771 7.28646 24.4219 7.48438C24.1667 7.68229 23.8984 7.84635 23.6172 7.97656C23.3411 8.10156 23.0599 8.19271 22.7734 8.25C22.4922 8.30729 22.2266 8.33594 21.9766 8.33594L26.2188 12H23.0781L18.8438 8.33594H17.3828V6.30469H21.9766C22.2318 6.28385 22.4635 6.23177 22.6719 6.14844C22.8854 6.0599 23.0677 5.94271 23.2188 5.79688C23.375 5.65104 23.4948 5.47656 23.5781 5.27344C23.6615 5.0651 23.7031 4.82812 23.7031 4.5625V3.28125C23.7031 3.16667 23.6875 3.08073 23.6562 3.02344C23.6302 2.96094 23.5938 2.91667 23.5469 2.89062C23.5052 2.85938 23.4583 2.84115 23.4062 2.83594C23.3594 2.83073 23.3151 2.82812 23.2734 2.82812H16.5703V12H14.5391V1.82031C14.5391 1.67969 14.5651 1.54688 14.6172 1.42188C14.6693 1.29688 14.7396 1.1875 14.8281 1.09375C14.9219 1 15.0312 0.927083 15.1562 0.875C15.2812 0.822917 15.4167 0.796875 15.5625 0.796875H23.2734C23.7266 0.796875 24.1094 0.880208 24.4219 1.04688C24.7344 1.20833 24.987 1.41406 25.1797 1.66406C25.3776 1.90885 25.5182 2.17448 25.6016 2.46094C25.6901 2.7474 25.7344 3.01562 25.7344 3.26562V4.5625ZM40.8125 12H38.7656V5.32812L35.1641 11.6641C35.0755 11.8255 34.9505 11.9479 34.7891 12.0312C34.6328 12.1146 34.4635 12.1562 34.2812 12.1562C34.1042 12.1562 33.9375 12.1146 33.7812 12.0312C33.6302 11.9479 33.5104 11.8255 33.4219 11.6641L29.8047 5.32812V12H27.7734V1.66406C27.7734 1.42969 27.8411 1.22135 27.9766 1.03906C28.1172 0.856771 28.2995 0.734375 28.5234 0.671875C28.6328 0.645833 28.7422 0.638021 28.8516 0.648438C28.9609 0.653646 29.0651 0.677083 29.1641 0.71875C29.2682 0.755208 29.362 0.809896 29.4453 0.882812C29.5286 0.950521 29.599 1.03385 29.6562 1.13281L34.2812 9.17188L38.9062 1.13281C39.026 0.934896 39.1901 0.794271 39.3984 0.710938C39.612 0.627604 39.8333 0.614583 40.0625 0.671875C40.2812 0.734375 40.4609 0.856771 40.6016 1.03906C40.7422 1.22135 40.8125 1.42969 40.8125 1.66406V12ZM54.1719 12H52.1406V9.25H45V12H42.9688V6.39844C42.9688 5.58073 43.1094 4.82812 43.3906 4.14062C43.6719 3.45312 44.0625 2.86198 44.5625 2.36719C45.0625 1.8724 45.6536 1.48698 46.3359 1.21094C47.0182 0.934896 47.763 0.796875 48.5703 0.796875H53.1484C53.2891 0.796875 53.4219 0.822917 53.5469 0.875C53.6719 0.927083 53.7812 1 53.875 1.09375C53.9688 1.1875 54.0417 1.29688 54.0938 1.42188C54.1458 1.54688 54.1719 1.67969 54.1719 1.82031V12ZM45 7.21875H52.1406V2.82812H48.5703C48.5078 2.82812 48.375 2.83854 48.1719 2.85938C47.974 2.875 47.7422 2.91927 47.4766 2.99219C47.2161 3.0651 46.9401 3.17708 46.6484 3.32812C46.3568 3.47917 46.0885 3.6875 45.8438 3.95312C45.599 4.21875 45.3958 4.55208 45.2344 4.95312C45.0781 5.34896 45 5.83073 45 6.39844V7.21875ZM61.6562 4.79688L65.0781 0.796875H67.8516L63.0312 6.41406L67.8203 12H65.0625L61.6562 8.03125L58.2656 12H55.5L60.2812 6.41406L55.4844 0.796875H58.2344L61.6562 4.79688Z" fill="#C5C6C7"/>
</svg>
