<svg width="15" height="11" viewBox="0 0 15 11" fill="none" xmlns="http://www.w3.org/2000/svg">
<path d="M13.875 0.1875H1.125C0.843207 0.1875 0.572956 0.299442 0.373699 0.498699C0.174442 0.697956 0.0625 0.968207 0.0625 1.25V9.75C0.0625 10.0318 0.174442 10.302 0.373699 10.5013C0.572956 10.7006 0.843207 10.8125 1.125 10.8125H13.875C14.1568 10.8125 14.427 10.7006 14.6263 10.5013C14.8256 10.302 14.9375 10.0318 14.9375 9.75V1.25C14.9375 0.968207 14.8256 0.697956 14.6263 0.498699C14.427 0.299442 14.1568 0.1875 13.875 0.1875V0.1875ZM12.7062 1.25L7.5 4.85187L2.29375 1.25H12.7062ZM1.125 9.75V1.73344L7.19719 5.93562C7.28612 5.99732 7.39177 6.03038 7.5 6.03038C7.60823 6.03038 7.71388 5.99732 7.80281 5.93562L13.875 1.73344V9.75H1.125Z" fill="black"/>
</svg>
