<svg width="15" height="15" viewBox="0 0 15 15" fill="none" xmlns="http://www.w3.org/2000/svg">
<path d="M14.7914 12.4732L12.6766 14.5711C12.3644 14.8912 11.9506 14.9997 11.5476 15.0002C9.76547 14.9468 8.08094 14.0714 6.69784 13.1725C4.42757 11.5208 2.34449 9.4729 1.03712 6.99805C0.535694 5.96026 -0.0526559 4.63613 0.00355664 3.47776C0.00856914 3.04201 0.125994 2.61435 0.432882 2.33348L2.54771 0.219713C2.98686 -0.153824 3.41154 -0.0246742 3.69257 0.410426L5.39396 3.6367C5.57303 4.01891 5.47031 4.42844 5.20313 4.70155L4.42398 5.4803C4.37588 5.54619 4.34526 5.62119 4.34448 5.70281C4.64326 6.85934 5.54839 7.9253 6.34799 8.65889C7.14758 9.39249 8.00706 10.3864 9.12271 10.6217C9.26061 10.6601 9.42952 10.6736 9.52818 10.5819L10.4346 9.66013C10.747 9.42331 11.1981 9.30756 11.5317 9.5012H11.5476L14.6165 11.313C15.067 11.5954 15.114 12.1411 14.7914 12.4732Z" fill="#C5C6C7"/>
</svg>
