<svg width="163" height="13" viewBox="0 0 163 13" fill="none" xmlns="http://www.w3.org/2000/svg">
<path d="M0.256 9C0.256 8.408 0.256 7.84 0.256 7.296C0.256 6.752 0.256 6.152 0.256 5.496V4.696C0.256 4.22133 0.256 3.784 0.256 3.384C0.256 2.97867 0.256 2.58933 0.256 2.216C0.256 1.83733 0.256 1.45333 0.256 1.064L1.536 1.016C1.536 1.39467 1.536 1.768 1.536 2.136C1.536 2.504 1.536 2.88533 1.536 3.28C1.536 3.66933 1.536 4.09333 1.536 4.552V7.08H1.648L3.352 4.448C3.72 3.88267 4.088 3.31467 4.456 2.744C4.824 2.17333 5.18933 1.61333 5.552 1.064H6.92C6.92 1.45333 6.92 1.83733 6.92 2.216C6.92 2.58933 6.92 2.97867 6.92 3.384C6.92 3.784 6.92 4.22133 6.92 4.696V5.496C6.92 6.152 6.92 6.752 6.92 7.296C6.92 7.84 6.92 8.408 6.92 9H5.648C5.648 8.41867 5.648 7.85867 5.648 7.32C5.648 6.776 5.648 6.18133 5.648 5.536V2.976H5.536L3.848 5.576C3.47467 6.152 3.104 6.72533 2.736 7.296C2.368 7.86667 2 8.43467 1.632 9H0.256ZM9.42788 9C9.42788 8.408 9.42788 7.84 9.42788 7.296C9.42788 6.752 9.42788 6.152 9.42788 5.496V4.696C9.42788 4.22133 9.42788 3.784 9.42788 3.384C9.42788 2.97867 9.42788 2.58933 9.42788 2.216C9.42788 1.83733 9.42788 1.45333 9.42788 1.064L10.7399 1.008C10.7399 1.40267 10.7399 1.792 10.7399 2.176C10.7399 2.56 10.7399 2.95733 10.7399 3.368C10.7399 3.77333 10.7399 4.216 10.7399 4.696V5.496C10.7399 6.152 10.7399 6.752 10.7399 7.296C10.7399 7.84 10.7399 8.408 10.7399 9H9.42788ZM10.2119 5.528V4.456H15.3079V5.528H10.2119ZM14.7159 9C14.7159 8.408 14.7159 7.84 14.7159 7.296C14.7159 6.752 14.7159 6.152 14.7159 5.496V4.696C14.7159 4.22133 14.7159 3.784 14.7159 3.384C14.7159 2.97867 14.7159 2.58933 14.7159 2.216C14.7159 1.83733 14.7159 1.45333 14.7159 1.064H16.0279C16.0279 1.45333 16.0279 1.83733 16.0279 2.216C16.0279 2.58933 16.0279 2.97867 16.0279 3.384C16.0279 3.784 16.0279 4.22133 16.0279 4.696V5.496C16.0279 6.152 16.0279 6.752 16.0279 7.296C16.0279 7.84 16.0279 8.408 16.0279 9H14.7159ZM17.5933 9C18.0199 8.53067 18.4466 8.064 18.8733 7.6C19.2999 7.13067 19.7213 6.664 20.1373 6.2L21.5613 4.584L21.5453 5.224L20.3133 3.848C19.8919 3.37867 19.4759 2.91467 19.0653 2.456C18.6546 1.99733 18.2359 1.53333 17.8092 1.064L19.3693 1.016C19.6946 1.39467 20.0226 1.776 20.3533 2.16C20.6839 2.53867 21.0119 2.91733 21.3373 3.296L22.3933 4.52H23.1613V5.464H22.4253L21.2093 6.824C20.8893 7.18667 20.5666 7.54933 20.2413 7.912C19.9213 8.27467 19.6013 8.63733 19.2812 9H17.5933ZM22.9853 9C22.9853 8.43467 22.9853 7.89333 22.9853 7.376C22.9853 6.85867 22.9853 6.30133 22.9853 5.704V4.52C22.9853 3.90133 22.9853 3.31467 22.9853 2.76C22.9853 2.20533 22.9853 1.64 22.9853 1.064H24.2733C24.2733 1.64 24.2733 2.208 24.2733 2.768C24.2733 3.32267 24.2733 3.90667 24.2733 4.52V5.704C24.2733 6.30133 24.2733 6.85867 24.2733 7.376C24.2733 7.89333 24.2733 8.43467 24.2733 9H22.9853ZM27.9693 9C27.6279 8.62133 27.2973 8.25333 26.9773 7.896C26.6573 7.53867 26.3293 7.176 25.9933 6.808L24.7853 5.464H24.0973V4.52H24.8653L25.8893 3.296C26.2039 2.928 26.5213 2.55733 26.8413 2.184C27.1613 1.80533 27.4786 1.432 27.7933 1.064H29.3853C28.9746 1.528 28.5639 1.992 28.1533 2.456C27.7479 2.91467 27.3426 3.37333 26.9373 3.832L25.7133 5.224L25.6493 4.584L27.0733 6.192C27.5053 6.66133 27.9373 7.13067 28.3693 7.6C28.8013 8.064 29.2306 8.53067 29.6573 9H27.9693ZM34.5694 9.176C33.62 9.176 32.8387 8.99467 32.2254 8.632C31.612 8.26933 31.156 7.77333 30.8574 7.144C30.5587 6.51467 30.4094 5.79467 30.4094 4.984C30.4094 4.184 30.556 3.47467 30.8494 2.856C31.1427 2.23733 31.564 1.75467 32.1134 1.408C32.6627 1.056 33.3187 0.879999 34.0814 0.879999C34.7534 0.879999 35.3294 1.01067 35.8094 1.272C36.2947 1.53333 36.668 1.91733 36.9294 2.424C37.1907 2.92533 37.3214 3.54667 37.3214 4.288C37.3214 4.48533 37.316 4.664 37.3054 4.824C37.3 4.97867 37.284 5.136 37.2574 5.296L36.0974 4.712C36.108 4.62667 36.1134 4.54667 36.1134 4.472C36.1187 4.392 36.1214 4.31467 36.1214 4.24C36.1214 3.488 35.9347 2.91733 35.5614 2.528C35.188 2.13333 34.7 1.936 34.0974 1.936C33.612 1.936 33.1934 2.06133 32.8414 2.312C32.4947 2.55733 32.2254 2.89867 32.0334 3.336C31.8414 3.77333 31.7454 4.272 31.7454 4.832V5.016C31.7454 5.63467 31.852 6.168 32.0654 6.616C32.2787 7.064 32.6014 7.41067 33.0334 7.656C33.4707 7.896 34.0254 8.016 34.6974 8.016C34.948 8.016 35.212 7.99733 35.4894 7.96C35.772 7.91733 36.0494 7.85333 36.3214 7.768C36.5987 7.68267 36.8627 7.57067 37.1134 7.432L37.1694 8.624C36.9667 8.736 36.732 8.83467 36.4654 8.92C36.1987 9 35.9054 9.06133 35.5854 9.104C35.2654 9.152 34.9267 9.176 34.5694 9.176ZM30.9614 5.296V4.352L36.4494 4.304L37.2574 4.608V5.296H30.9614ZM39.3029 9C39.3029 8.408 39.3029 7.84 39.3029 7.296C39.3029 6.752 39.3029 6.152 39.3029 5.496V4.696C39.3029 4.22133 39.3029 3.784 39.3029 3.384C39.3029 2.97867 39.3029 2.58933 39.3029 2.216C39.3029 1.83733 39.3029 1.45333 39.3029 1.064L40.6149 1.008C40.6149 1.40267 40.6149 1.792 40.6149 2.176C40.6149 2.56 40.6149 2.95733 40.6149 3.368C40.6149 3.77333 40.6149 4.216 40.6149 4.696V5.496C40.6149 6.152 40.6149 6.752 40.6149 7.296C40.6149 7.84 40.6149 8.408 40.6149 9H39.3029ZM40.0869 5.528V4.456H45.1829V5.528H40.0869ZM44.5909 9C44.5909 8.408 44.5909 7.84 44.5909 7.296C44.5909 6.752 44.5909 6.152 44.5909 5.496V4.696C44.5909 4.22133 44.5909 3.784 44.5909 3.384C44.5909 2.97867 44.5909 2.58933 44.5909 2.216C44.5909 1.83733 44.5909 1.45333 44.5909 1.064H45.9029C45.9029 1.45333 45.9029 1.83733 45.9029 2.216C45.9029 2.58933 45.9029 2.97867 45.9029 3.384C45.9029 3.784 45.9029 4.22133 45.9029 4.696V5.496C45.9029 6.152 45.9029 6.752 45.9029 7.296C45.9029 7.84 45.9029 8.408 45.9029 9H44.5909ZM52.1163 9.176C51.1669 9.176 50.3856 8.99467 49.7723 8.632C49.1589 8.26933 48.7029 7.77333 48.4043 7.144C48.1056 6.51467 47.9563 5.79467 47.9563 4.984C47.9563 4.184 48.1029 3.47467 48.3963 2.856C48.6896 2.23733 49.1109 1.75467 49.6603 1.408C50.2096 1.056 50.8656 0.879999 51.6283 0.879999C52.3003 0.879999 52.8763 1.01067 53.3563 1.272C53.8416 1.53333 54.2149 1.91733 54.4763 2.424C54.7376 2.92533 54.8683 3.54667 54.8683 4.288C54.8683 4.48533 54.8629 4.664 54.8523 4.824C54.8469 4.97867 54.8309 5.136 54.8043 5.296L53.6443 4.712C53.6549 4.62667 53.6603 4.54667 53.6603 4.472C53.6656 4.392 53.6683 4.31467 53.6683 4.24C53.6683 3.488 53.4816 2.91733 53.1083 2.528C52.7349 2.13333 52.2469 1.936 51.6443 1.936C51.1589 1.936 50.7403 2.06133 50.3883 2.312C50.0416 2.55733 49.7723 2.89867 49.5803 3.336C49.3883 3.77333 49.2923 4.272 49.2923 4.832V5.016C49.2923 5.63467 49.3989 6.168 49.6123 6.616C49.8256 7.064 50.1483 7.41067 50.5803 7.656C51.0176 7.896 51.5723 8.016 52.2443 8.016C52.4949 8.016 52.7589 7.99733 53.0363 7.96C53.3189 7.91733 53.5963 7.85333 53.8683 7.768C54.1456 7.68267 54.4096 7.57067 54.6603 7.432L54.7163 8.624C54.5136 8.736 54.2789 8.83467 54.0123 8.92C53.7456 9 53.4523 9.06133 53.1323 9.104C52.8123 9.152 52.4736 9.176 52.1163 9.176ZM48.5083 5.296V4.352L53.9963 4.304L54.8043 4.608V5.296H48.5083ZM56.8498 12.12C56.8498 11.5333 56.8498 10.9573 56.8498 10.392C56.8498 9.832 56.8498 9.224 56.8498 8.568V4.696C56.8498 4.10933 56.8498 3.50933 56.8498 2.896C56.8498 2.28267 56.8498 1.672 56.8498 1.064L58.0498 0.983999L58.0818 2.016H58.2178C58.3778 1.808 58.5804 1.61867 58.8258 1.448C59.0711 1.272 59.3511 1.13333 59.6658 1.032C59.9858 0.925333 60.3351 0.872 60.7138 0.872C61.4391 0.872 62.0551 1.05333 62.5618 1.416C63.0738 1.77333 63.4631 2.264 63.7298 2.888C63.9964 3.512 64.1298 4.21867 64.1298 5.008C64.1298 5.74933 64.0044 6.43733 63.7538 7.072C63.5084 7.70133 63.1324 8.21067 62.6258 8.6C62.1244 8.984 61.4951 9.176 60.7378 9.176C60.3858 9.176 60.0604 9.128 59.7618 9.032C59.4631 8.94133 59.1911 8.81067 58.9458 8.64C58.7058 8.464 58.4871 8.25067 58.2898 8H58.1698V8.624C58.1698 9.248 58.1698 9.82933 58.1698 10.368C58.1698 10.912 58.1698 11.48 58.1698 12.072L56.8498 12.12ZM60.3378 7.992C60.9084 7.992 61.3724 7.85067 61.7298 7.568C62.0924 7.28533 62.3564 6.92 62.5218 6.472C62.6924 6.01867 62.7778 5.53333 62.7778 5.016C62.7778 4.47733 62.6871 3.98667 62.5058 3.544C62.3298 3.096 62.0604 2.73867 61.6978 2.472C61.3351 2.20533 60.8738 2.072 60.3138 2.072C60.0364 2.072 59.7644 2.11467 59.4978 2.2C59.2311 2.28 58.9831 2.40267 58.7538 2.568C58.5298 2.728 58.3351 2.928 58.1698 3.168V6.696C58.3298 6.968 58.5138 7.2 58.7218 7.392C58.9351 7.584 59.1751 7.73333 59.4418 7.84C59.7084 7.94133 60.0071 7.992 60.3378 7.992ZM66.2091 9C66.2091 8.408 66.2091 7.84 66.2091 7.296C66.2091 6.752 66.2091 6.152 66.2091 5.496V4.696C66.2091 4.22133 66.2091 3.784 66.2091 3.384C66.2091 2.97867 66.2091 2.58933 66.2091 2.216C66.2091 1.83733 66.2091 1.45333 66.2091 1.064L67.5211 1.008C67.5211 1.40267 67.5211 1.792 67.5211 2.176C67.5211 2.56 67.5211 2.95733 67.5211 3.368C67.5211 3.77333 67.5211 4.216 67.5211 4.696V5.496C67.5211 6.152 67.5211 6.752 67.5211 7.296C67.5211 7.84 67.5211 8.408 67.5211 9H66.2091ZM66.9931 5.528V4.456H72.0891V5.528H66.9931ZM71.4971 9C71.4971 8.408 71.4971 7.84 71.4971 7.296C71.4971 6.752 71.4971 6.152 71.4971 5.496V4.696C71.4971 4.22133 71.4971 3.784 71.4971 3.384C71.4971 2.97867 71.4971 2.58933 71.4971 2.216C71.4971 1.83733 71.4971 1.45333 71.4971 1.064H72.8091C72.8091 1.45333 72.8091 1.83733 72.8091 2.216C72.8091 2.58933 72.8091 2.97867 72.8091 3.384C72.8091 3.784 72.8091 4.22133 72.8091 4.696V5.496C72.8091 6.152 72.8091 6.752 72.8091 7.296C72.8091 7.84 72.8091 8.408 72.8091 9H71.4971ZM75.3185 9C75.3185 8.408 75.3185 7.84 75.3185 7.296C75.3185 6.752 75.3185 6.152 75.3185 5.496V4.696C75.3185 4.22133 75.3185 3.784 75.3185 3.384C75.3185 2.97867 75.3185 2.58933 75.3185 2.216C75.3185 1.83733 75.3185 1.45333 75.3185 1.064L76.6305 1.008C76.6305 1.57867 76.6305 2.136 76.6305 2.68C76.6305 3.21867 76.6305 3.79467 76.6305 4.408C76.6305 5.05333 76.6305 5.656 76.6305 6.216C76.6305 6.77067 76.6305 7.344 76.6305 7.936H78.1985C78.5985 7.936 78.9612 7.89333 79.2865 7.808C79.6172 7.72267 79.8785 7.55733 80.0705 7.312C80.2625 7.06133 80.3585 6.70133 80.3585 6.232C80.3585 5.88533 80.3025 5.61067 80.1905 5.408C80.0838 5.2 79.9398 5.04533 79.7585 4.944C79.5772 4.84267 79.3798 4.776 79.1665 4.744C78.9532 4.712 78.7452 4.696 78.5425 4.696H76.4385L76.0945 3.632C76.4198 3.632 76.8252 3.632 77.3105 3.632C77.8012 3.632 78.2598 3.632 78.6865 3.632C79.3532 3.632 79.9105 3.72533 80.3585 3.912C80.8065 4.09333 81.1425 4.376 81.3665 4.76C81.5905 5.13867 81.7025 5.62667 81.7025 6.224C81.7025 6.76267 81.6012 7.24267 81.3985 7.664C81.2012 8.08 80.8705 8.408 80.4065 8.648C79.9425 8.88267 79.3132 9 78.5185 9C77.8838 9 77.2892 9 76.7345 9C76.1852 9 75.7132 9 75.3185 9ZM83.0705 9C83.0705 8.408 83.0705 7.84 83.0705 7.296C83.0705 6.752 83.0705 6.152 83.0705 5.496V4.696C83.0705 4.22133 83.0705 3.784 83.0705 3.384C83.0705 2.97867 83.0705 2.58933 83.0705 2.216C83.0705 1.83733 83.0705 1.45333 83.0705 1.064L84.3985 1.016C84.3985 1.41067 84.3985 1.8 84.3985 2.184C84.3985 2.56267 84.3985 2.95733 84.3985 3.368C84.3985 3.77333 84.3985 4.216 84.3985 4.696V5.496C84.3985 6.152 84.3985 6.752 84.3985 7.296C84.3985 7.84 84.3985 8.408 84.3985 9H83.0705ZM90.6163 9.176C89.6669 9.176 88.8856 8.99467 88.2723 8.632C87.6589 8.26933 87.2029 7.77333 86.9043 7.144C86.6056 6.51467 86.4563 5.79467 86.4563 4.984C86.4563 4.184 86.6029 3.47467 86.8963 2.856C87.1896 2.23733 87.6109 1.75467 88.1603 1.408C88.7096 1.056 89.3656 0.879999 90.1283 0.879999C90.8003 0.879999 91.3763 1.01067 91.8563 1.272C92.3416 1.53333 92.7149 1.91733 92.9763 2.424C93.2376 2.92533 93.3683 3.54667 93.3683 4.288C93.3683 4.48533 93.3629 4.664 93.3523 4.824C93.3469 4.97867 93.3309 5.136 93.3043 5.296L92.1443 4.712C92.1549 4.62667 92.1603 4.54667 92.1603 4.472C92.1656 4.392 92.1683 4.31467 92.1683 4.24C92.1683 3.488 91.9816 2.91733 91.6083 2.528C91.2349 2.13333 90.7469 1.936 90.1443 1.936C89.6589 1.936 89.2403 2.06133 88.8883 2.312C88.5416 2.55733 88.2723 2.89867 88.0803 3.336C87.8883 3.77333 87.7923 4.272 87.7923 4.832V5.016C87.7923 5.63467 87.8989 6.168 88.1123 6.616C88.3256 7.064 88.6483 7.41067 89.0803 7.656C89.5176 7.896 90.0723 8.016 90.7443 8.016C90.9949 8.016 91.2589 7.99733 91.5363 7.96C91.8189 7.91733 92.0963 7.85333 92.3683 7.768C92.6456 7.68267 92.9096 7.57067 93.1603 7.432L93.2163 8.624C93.0136 8.736 92.7789 8.83467 92.5123 8.92C92.2456 9 91.9523 9.06133 91.6323 9.104C91.3123 9.152 90.9736 9.176 90.6163 9.176ZM87.0083 5.296V4.352L92.4963 4.304L93.3043 4.608V5.296H87.0083ZM98.4123 12.12C98.4123 11.5333 98.4123 10.9573 98.4123 10.392C98.4123 9.832 98.4123 9.224 98.4123 8.568V4.696C98.4123 4.10933 98.4123 3.50933 98.4123 2.896C98.4123 2.28267 98.4123 1.672 98.4123 1.064L99.6123 0.983999L99.6443 2.016H99.7803C99.9403 1.808 100.143 1.61867 100.388 1.448C100.634 1.272 100.914 1.13333 101.228 1.032C101.548 0.925333 101.898 0.872 102.276 0.872C103.002 0.872 103.618 1.05333 104.124 1.416C104.636 1.77333 105.026 2.264 105.292 2.888C105.559 3.512 105.692 4.21867 105.692 5.008C105.692 5.74933 105.567 6.43733 105.316 7.072C105.071 7.70133 104.695 8.21067 104.188 8.6C103.687 8.984 103.058 9.176 102.3 9.176C101.948 9.176 101.623 9.128 101.324 9.032C101.026 8.94133 100.754 8.81067 100.508 8.64C100.268 8.464 100.05 8.25067 99.8523 8H99.7323V8.624C99.7323 9.248 99.7323 9.82933 99.7323 10.368C99.7323 10.912 99.7323 11.48 99.7323 12.072L98.4123 12.12ZM101.9 7.992C102.471 7.992 102.935 7.85067 103.292 7.568C103.655 7.28533 103.919 6.92 104.084 6.472C104.255 6.01867 104.34 5.53333 104.34 5.016C104.34 4.47733 104.25 3.98667 104.068 3.544C103.892 3.096 103.623 2.73867 103.26 2.472C102.898 2.20533 102.436 2.072 101.876 2.072C101.599 2.072 101.327 2.11467 101.06 2.2C100.794 2.28 100.546 2.40267 100.316 2.568C100.092 2.728 99.8976 2.928 99.7323 3.168V6.696C99.8923 6.968 100.076 7.2 100.284 7.392C100.498 7.584 100.738 7.73333 101.004 7.84C101.271 7.94133 101.57 7.992 101.9 7.992ZM111.476 9.176C110.526 9.176 109.745 8.99467 109.132 8.632C108.518 8.26933 108.062 7.77333 107.764 7.144C107.465 6.51467 107.316 5.79467 107.316 4.984C107.316 4.184 107.462 3.47467 107.756 2.856C108.049 2.23733 108.47 1.75467 109.02 1.408C109.569 1.056 110.225 0.879999 110.988 0.879999C111.66 0.879999 112.236 1.01067 112.716 1.272C113.201 1.53333 113.574 1.91733 113.836 2.424C114.097 2.92533 114.228 3.54667 114.228 4.288C114.228 4.48533 114.222 4.664 114.212 4.824C114.206 4.97867 114.19 5.136 114.164 5.296L113.004 4.712C113.014 4.62667 113.02 4.54667 113.02 4.472C113.025 4.392 113.028 4.31467 113.028 4.24C113.028 3.488 112.841 2.91733 112.468 2.528C112.094 2.13333 111.606 1.936 111.004 1.936C110.518 1.936 110.1 2.06133 109.748 2.312C109.401 2.55733 109.132 2.89867 108.94 3.336C108.748 3.77333 108.652 4.272 108.652 4.832V5.016C108.652 5.63467 108.758 6.168 108.972 6.616C109.185 7.064 109.508 7.41067 109.94 7.656C110.377 7.896 110.932 8.016 111.604 8.016C111.854 8.016 112.118 7.99733 112.396 7.96C112.678 7.91733 112.956 7.85333 113.228 7.768C113.505 7.68267 113.769 7.57067 114.02 7.432L114.076 8.624C113.873 8.736 113.638 8.83467 113.372 8.92C113.105 9 112.812 9.06133 112.492 9.104C112.172 9.152 111.833 9.176 111.476 9.176ZM107.868 5.296V4.352L113.356 4.304L114.164 4.608V5.296H107.868ZM116.209 9C116.209 8.408 116.209 7.84 116.209 7.296C116.209 6.752 116.209 6.152 116.209 5.496V4.696C116.209 4.22133 116.209 3.784 116.209 3.384C116.209 2.97867 116.209 2.58933 116.209 2.216C116.209 1.83733 116.209 1.45333 116.209 1.064L117.529 1.008C117.529 1.40267 117.529 1.792 117.529 2.176C117.529 2.56 117.529 2.95733 117.529 3.368C117.529 3.77333 117.529 4.216 117.529 4.696V5.496C117.529 5.928 117.529 6.32533 117.529 6.688C117.529 7.05067 117.529 7.4 117.529 7.736C117.529 8.072 117.529 8.424 117.529 8.792L116.729 7.912H126.369L125.665 8.792C125.665 8.424 125.665 8.072 125.665 7.736C125.665 7.4 125.665 7.05067 125.665 6.688C125.665 6.32533 125.665 5.928 125.665 5.496V4.696C125.665 4.22133 125.665 3.784 125.665 3.384C125.665 2.97867 125.665 2.58933 125.665 2.216C125.665 1.83733 125.665 1.45333 125.665 1.064H126.985C126.985 1.45333 126.985 1.83733 126.985 2.216C126.985 2.58933 126.985 2.97867 126.985 3.384C126.985 3.784 126.985 4.22133 126.985 4.696V5.496C126.985 6.152 126.985 6.752 126.985 7.296C126.985 7.84 126.985 8.408 126.985 9H116.209ZM120.961 8.792C120.961 8.424 120.961 8.072 120.961 7.736C120.961 7.4 120.961 7.05067 120.961 6.688C120.961 6.32533 120.961 5.928 120.961 5.496V4.696C120.961 4.22133 120.961 3.784 120.961 3.384C120.961 2.97867 120.961 2.58933 120.961 2.216C120.961 1.83733 120.961 1.45333 120.961 1.064H122.225C122.225 1.45333 122.225 1.83733 122.225 2.216C122.225 2.58933 122.225 2.97867 122.225 3.384C122.225 3.784 122.225 4.22133 122.225 4.696V5.496C122.225 5.928 122.225 6.32533 122.225 6.688C122.225 7.05067 122.225 7.4 122.225 7.736C122.225 8.072 122.225 8.424 122.225 8.792H120.961ZM133.194 9.176C132.245 9.176 131.464 8.99467 130.85 8.632C130.237 8.26933 129.781 7.77333 129.482 7.144C129.184 6.51467 129.034 5.79467 129.034 4.984C129.034 4.184 129.181 3.47467 129.474 2.856C129.768 2.23733 130.189 1.75467 130.738 1.408C131.288 1.056 131.944 0.879999 132.706 0.879999C133.378 0.879999 133.954 1.01067 134.434 1.272C134.92 1.53333 135.293 1.91733 135.554 2.424C135.816 2.92533 135.946 3.54667 135.946 4.288C135.946 4.48533 135.941 4.664 135.93 4.824C135.925 4.97867 135.909 5.136 135.882 5.296L134.722 4.712C134.733 4.62667 134.738 4.54667 134.738 4.472C134.744 4.392 134.746 4.31467 134.746 4.24C134.746 3.488 134.56 2.91733 134.186 2.528C133.813 2.13333 133.325 1.936 132.722 1.936C132.237 1.936 131.818 2.06133 131.466 2.312C131.12 2.55733 130.85 2.89867 130.658 3.336C130.466 3.77333 130.37 4.272 130.37 4.832V5.016C130.37 5.63467 130.477 6.168 130.69 6.616C130.904 7.064 131.226 7.41067 131.658 7.656C132.096 7.896 132.65 8.016 133.322 8.016C133.573 8.016 133.837 7.99733 134.114 7.96C134.397 7.91733 134.674 7.85333 134.946 7.768C135.224 7.68267 135.488 7.57067 135.738 7.432L135.794 8.624C135.592 8.736 135.357 8.83467 135.09 8.92C134.824 9 134.53 9.06133 134.21 9.104C133.89 9.152 133.552 9.176 133.194 9.176ZM129.586 5.296V4.352L135.074 4.304L135.882 4.608V5.296H129.586ZM137.928 9C137.928 8.408 137.928 7.84 137.928 7.296C137.928 6.752 137.928 6.152 137.928 5.496V4.696C137.928 4.22133 137.928 3.784 137.928 3.384C137.928 2.97867 137.928 2.58933 137.928 2.216C137.928 1.83733 137.928 1.45333 137.928 1.064L139.24 1.008C139.24 1.40267 139.24 1.792 139.24 2.176C139.24 2.56 139.24 2.95733 139.24 3.368C139.24 3.77333 139.24 4.216 139.24 4.696V5.496C139.24 6.152 139.24 6.752 139.24 7.296C139.24 7.84 139.24 8.408 139.24 9H137.928ZM138.712 5.528V4.456H143.808V5.528H138.712ZM143.216 9C143.216 8.408 143.216 7.84 143.216 7.296C143.216 6.752 143.216 6.152 143.216 5.496V4.696C143.216 4.22133 143.216 3.784 143.216 3.384C143.216 2.97867 143.216 2.58933 143.216 2.216C143.216 1.83733 143.216 1.45333 143.216 1.064H144.528C144.528 1.45333 144.528 1.83733 144.528 2.216C144.528 2.58933 144.528 2.97867 144.528 3.384C144.528 3.784 144.528 4.22133 144.528 4.696V5.496C144.528 6.152 144.528 6.752 144.528 7.296C144.528 7.84 144.528 8.408 144.528 9H143.216ZM147.037 9C147.037 8.408 147.037 7.84 147.037 7.296C147.037 6.752 147.037 6.152 147.037 5.496V4.696C147.037 4.22133 147.037 3.784 147.037 3.384C147.037 2.97867 147.037 2.58933 147.037 2.216C147.037 1.83733 147.037 1.45333 147.037 1.064L148.317 1.016C148.317 1.39467 148.317 1.768 148.317 2.136C148.317 2.504 148.317 2.88533 148.317 3.28C148.317 3.66933 148.317 4.09333 148.317 4.552V7.08H148.429L150.133 4.448C150.501 3.88267 150.869 3.31467 151.237 2.744C151.605 2.17333 151.971 1.61333 152.333 1.064H153.701C153.701 1.45333 153.701 1.83733 153.701 2.216C153.701 2.58933 153.701 2.97867 153.701 3.384C153.701 3.784 153.701 4.22133 153.701 4.696V5.496C153.701 6.152 153.701 6.752 153.701 7.296C153.701 7.84 153.701 8.408 153.701 9H152.429C152.429 8.41867 152.429 7.85867 152.429 7.32C152.429 6.776 152.429 6.18133 152.429 5.536V2.976H152.317L150.629 5.576C150.256 6.152 149.885 6.72533 149.517 7.296C149.149 7.86667 148.781 8.43467 148.413 9H147.037ZM155.529 9C155.817 8.616 156.102 8.232 156.385 7.848C156.668 7.45867 156.948 7.08 157.225 6.712L158.393 5.128L158.617 5.744C157.929 5.744 157.38 5.648 156.969 5.456C156.558 5.25867 156.262 4.98667 156.081 4.64C155.9 4.29333 155.809 3.896 155.809 3.448C155.809 2.888 155.926 2.43467 156.161 2.088C156.396 1.736 156.742 1.47733 157.201 1.312C157.66 1.14667 158.228 1.064 158.905 1.064C159.284 1.064 159.673 1.064 160.073 1.064C160.473 1.064 160.852 1.064 161.209 1.064C161.566 1.064 161.865 1.064 162.105 1.064C162.105 1.45333 162.105 1.83733 162.105 2.216C162.105 2.58933 162.105 2.97867 162.105 3.384C162.105 3.784 162.105 4.22133 162.105 4.696V5.496C162.105 6.152 162.105 6.752 162.105 7.296C162.105 7.84 162.105 8.408 162.105 9H160.817C160.817 8.65333 160.817 8.31733 160.817 7.992C160.817 7.66667 160.817 7.33333 160.817 6.992C160.817 6.64533 160.817 6.28267 160.817 5.904V4.696C160.817 4.22667 160.817 3.78667 160.817 3.376C160.817 2.96 160.817 2.544 160.817 2.128H159.017C158.729 2.128 158.441 2.16267 158.153 2.232C157.865 2.30133 157.625 2.44267 157.433 2.656C157.241 2.864 157.145 3.17867 157.145 3.6C157.145 3.94133 157.212 4.208 157.345 4.4C157.478 4.58667 157.646 4.72267 157.849 4.808C158.057 4.888 158.273 4.93867 158.497 4.96C158.726 4.98133 158.934 4.992 159.121 4.992H161.041V5.952H158.889L159.609 5.432L158.601 6.824C158.34 7.18667 158.078 7.552 157.817 7.92C157.556 8.28267 157.294 8.64267 157.033 9H155.529Z" fill="#56D8CE"/>
</svg>
